<?xml version="1.0" standalone="no"?>
<svg xmlns="http://www.w3.org/2000/svg" viewBox="0 0 104.059 120.156" width="104.059" height="120.156"><polygon fill="none" stroke="#8af156" stroke-width="3" points="102.559,30.789 102.559,89.367 52.0295,118.656 1.5,89.367 1.5,30.789 52.0295,1.5"></polygon><path fill="#3db403" fill-rule="nonzero" d="M5.82 23.16L5.82 23.16Q3.70 23.16 2.42 22.25Q1.15 21.34 0.57 19.60Q0 17.86 0 15.43L0 15.43L0 7.84Q0 5.35 0.52 3.60Q1.04 1.85 2.37 0.92Q3.70 0 6.08 0L6.08 0Q8.20 0 9.51 0.71Q10.81 1.43 11.40 2.90Q11.98 4.37 11.98 6.61L11.98 6.61L11.98 7.45L9.02 7.45L9.02 6.75Q9.02 5.26 8.82 4.33Q8.62 3.39 8.02 2.93Q7.42 2.46 6.13 2.46L6.13 2.46Q4.73 2.46 4.10 3.11Q3.47 3.75 3.32 4.86Q3.16 5.96 3.16 7.36L3.16 7.36L3.16 15.76Q3.16 17.39 3.40 18.48Q3.64 19.57 4.31 20.10Q4.98 20.64 6.22 20.64L6.22 20.64Q7.45 20.64 8.12 20.05Q8.79 19.46 9.04 18.31Q9.30 17.16 9.30 15.46L9.30 15.46L9.30 13.89L6.41 13.89L6.41 11.65L12.15 11.65L12.15 22.88L10.16 22.88L9.86 20.27Q9.41 21.53 8.46 22.34Q7.50 23.16 5.82 23.16ZM20.58 22.88L15.40 22.88L15.40 0.20L20.33 0.20Q22.85 0.20 24.32 0.97Q25.79 1.74 26.42 3.28Q27.05 4.82 27.05 7.11L27.05 7.11L27.05 15.46Q27.05 17.86 26.42 19.52Q25.79 21.17 24.37 22.02Q22.96 22.88 20.58 22.88L20.58 22.88ZM18.56 2.55L18.56 20.61L20.36 20.61Q22.09 20.61 22.82 19.94Q23.55 19.26 23.70 17.98Q23.86 16.69 23.86 14.87L23.86 14.87L23.86 7.50Q23.86 5.74 23.63 4.65Q23.41 3.56 22.65 3.05Q21.90 2.55 20.27 2.55L20.27 2.55L18.56 2.55Z" transform="translate(38.506, 22.5)"></path><g fill="#3db403" color="#3db403" transform="translate(30.0295 53.656000000000006) scale(0.6875)"><svg width="64.0" height="64.0" x="0.0" y="0.0" viewBox="0 0 64 64"><g><path d="M63,37V27h-3.448c-0.272-1.504-0.672-2.993-1.193-4.444l2.989-1.726l-5-8.66l-2.994,1.729   c-0.992-1.17-2.082-2.259-3.251-3.251l1.729-2.994l-8.66-5l-1.726,2.988C39.992,5.12,38.503,4.721,37,4.448V1H27v3.448   c-1.503,0.272-2.992,0.672-4.445,1.193L20.83,2.653l-8.66,5l1.729,2.994c-1.17,0.992-2.259,2.081-3.251,3.251L7.653,12.17l-5,8.66   l2.989,1.726C5.121,24.007,4.721,25.496,4.448,27H1v10h3.448c0.272,1.504,0.672,2.993,1.193,4.444L2.653,43.17l5,8.66l2.994-1.729   c0.992,1.17,2.082,2.259,3.251,3.251l-1.729,2.994l8.66,5l1.726-2.988c1.453,0.521,2.942,0.921,4.445,1.193V63h10v-3.448   c1.503-0.272,2.992-0.672,4.445-1.193l1.726,2.988l8.66-5l-1.729-2.994c1.17-0.992,2.259-2.081,3.251-3.251l2.994,1.729l5-8.66   l-2.989-1.726c0.521-1.451,0.921-2.94,1.193-4.444H63z M58.615,43.902l-3,5.195l-2.741-1.581l-0.537,0.673   c-1.22,1.53-2.616,2.926-4.148,4.147l-0.673,0.537l1.582,2.74l-5.196,3l-1.58-2.736l-0.801,0.315   c-1.838,0.724-3.745,1.235-5.667,1.521L35,57.841V61h-6v-3.159l-0.853-0.127c-1.923-0.285-3.83-0.797-5.667-1.521l-0.801-0.315   l-1.58,2.736l-5.196-3l1.582-2.74l-0.673-0.537c-1.533-1.222-2.928-2.617-4.148-4.147l-0.537-0.673l-2.741,1.581l-3-5.195   l2.737-1.58l-0.315-0.802c-0.723-1.836-1.234-3.743-1.521-5.668L6.159,35H3v-6h3.159l0.127-0.853   c0.286-1.925,0.797-3.832,1.521-5.668l0.315-0.802l-2.737-1.58l3-5.195l2.741,1.581l0.537-0.673c1.22-1.53,2.616-2.926,4.148-4.147   l0.673-0.537l-1.582-2.74l5.196-3l1.58,2.736l0.801-0.315c1.838-0.724,3.745-1.235,5.667-1.521L29,6.159V3h6v3.159l0.853,0.127   c1.923,0.285,3.83,0.797,5.667,1.521l0.801,0.315l1.58-2.736l5.196,3l-1.582,2.74l0.673,0.537c1.533,1.222,2.928,2.617,4.148,4.147   l0.537,0.673l2.741-1.581l3,5.195l-2.737,1.58l0.315,0.802c0.723,1.836,1.234,3.743,1.521,5.668L57.841,29H61v6h-3.159   l-0.127,0.853c-0.286,1.925-0.797,3.832-1.521,5.668l-0.315,0.802L58.615,43.902z"></path><rect x="31" y="47" width="2" height="2"></rect><rect x="31" y="55" width="2" height="2"></rect><path d="M13,22.351v21.299l18,8.001V53h2v-1.35l18-8.001V22.351l-19-8.445L13,22.351z M35.427,36.92L35,37.219V39h-2v-4.184   c1.161-0.414,2-1.514,2-2.816c0-1.654-1.346-3-3-3s-3,1.346-3,3c0,1.302,0.839,2.402,2,2.816V39h-2v-1.781l-0.427-0.299   C26.962,35.795,26,33.956,26,32c0-3.309,2.691-6,6-6s6,2.691,6,6C38,33.956,37.038,35.795,35.427,36.92z M29,41h6v2h-6V41z M31,32   c0-0.552,0.449-1,1-1s1,0.448,1,1s-0.449,1-1,1S31,32.552,31,32z M31,24.069c-2.153,0.27-4.04,1.398-5.311,3.032L16.462,23   L31,16.539V24.069z M33,24.069v-7.53L47.538,23l-9.227,4.101C37.04,25.467,35.153,24.34,33,24.069z M32,49.905l-17-7.555V24.539   l9.657,4.293C24.236,29.804,24,30.875,24,32c0,2.431,1.112,4.726,3,6.24V39h-2v2h2v4h10v-4h2v-2h-2v-0.76   c1.888-1.515,3-3.81,3-6.24c0-1.125-0.236-2.196-0.657-3.168L49,24.539v17.811L32,49.905z"></path></g></svg></g></svg>